<svg xmlns="http://www.w3.org/2000/svg" xml:space="preserve" id="letter-p" x="0" y="0" enable-background="new 0 0 75 75" version="1.1" viewBox="0 0 75 75">
  <g>
    <g>
      <g>
        <path d="M59.49,5.5H15.52C9.98,5.5,5.5,9.98,5.5,15.52v43.96c0,5.54,4.48,10.02,10.02,10.02h43.96c5.54,0,10.02-4.48,10.02-10.02
				V15.51C69.5,9.98,65.02,5.5,59.49,5.5z M63.7,58.07c0,3.1-2.52,5.63-5.63,5.63H16.94c-3.11,0-5.64-2.53-5.64-5.63V16.93
				c0-3.1,2.53-5.63,5.64-5.63h41.14c3.1,0,5.62,2.52,5.62,5.63V58.07z"></path>
      </g>
    </g>
    <g>
      <path d="M24.26,23.45c0-3.94,2.05-5.19,5.19-5.19h13.56c7.46,0,13.45,3.67,13.45,12.32c0,7.08-4.92,12.32-13.51,12.32h-9.83v10.54
			c0,2.65-1.73,4.43-4.43,4.43c-2.7,0-4.43-1.78-4.43-4.43V23.45z M33.12,36.1h8.27c3.57,0,6.21-2.16,6.21-5.51
			c0-3.89-2.76-5.51-7.13-5.51h-7.35V36.1z"></path>
    </g>
  </g>
</svg>
